<svg width="16" height="16" viewBox="0 0 16 16" fill="currentColor"><path d="M10.6727 5.69836C10.8446 5.69836 11.0164 5.71423 11.1874 5.72923C10.7275 3.59475 8.42015 2 5.79179 2C2.85266 2.01031 0.444336 3.99677 0.444336 6.51916C0.444336 7.97334 1.24713 9.1727 2.58066 10.1013L2.0424 11.6942L3.91421 10.7666C4.5848 10.8978 5.12312 11.0289 5.78518 11.0289C5.95705 11.0289 6.12049 11.0214 6.28384 11.0064C6.17768 10.6442 6.1227 10.2689 6.12048 9.89144C6.12805 7.57891 8.1321 5.6993 10.6736 5.6993L10.6727 5.69836H10.6727ZM7.79591 4.26098C8.20201 4.26098 8.46643 4.52333 8.46643 4.92622C8.46643 5.31978 8.20201 5.59152 7.79591 5.59152C7.39826 5.59152 6.9931 5.32823 6.9931 4.9262C6.9931 4.52333 7.39826 4.26098 7.79591 4.26098ZM4.05304 5.59152C3.65641 5.59152 3.25032 5.32823 3.25032 4.9262C3.25032 4.52333 3.65641 4.26098 4.05304 4.26098C4.4507 4.26098 4.72363 4.52333 4.72363 4.92622C4.72363 5.31978 4.4592 5.59152 4.05304 5.59152ZM15.5555 9.83613C15.5555 7.71664 13.4191 5.98414 11.0089 5.98414C8.46737 5.98414 6.46326 7.71664 6.46326 9.83613C6.46326 11.9631 8.46737 13.689 11.0089 13.689C11.5397 13.689 12.078 13.5579 12.6154 13.4258L14.0811 14.2222L13.676 12.8991C14.7527 12.0877 15.5555 11.027 15.5555 9.83613ZM9.53554 9.17081C9.27112 9.17081 8.99723 8.90847 8.99723 8.63677C8.99723 8.37442 9.27112 8.1027 9.53554 8.1027C9.94163 8.1027 10.2061 8.36598 10.2061 8.63677C10.2061 8.90848 9.94163 9.17083 9.53554 9.17083V9.17081ZM12.4756 9.17081C12.2102 9.17081 11.9448 8.90847 11.9448 8.63677C11.9448 8.37442 12.2093 8.1027 12.4756 8.1027C12.8808 8.1027 13.1461 8.36598 13.1461 8.63677C13.1461 8.90848 12.8808 9.17083 12.4756 9.17083V9.17081Z" fill="currentColor"/></svg>